<svg width="31" height="28" viewBox="0 0 31 28" fill="none" xmlns="http://www.w3.org/2000/svg">
<g filter="url(#filter0_d_6540_7800)">
<path fill-rule="evenodd" clip-rule="evenodd" d="M11.8906 20.8418C11.8906 20.5657 12.1145 20.3418 12.3906 20.3418H19.4906C19.7668 20.3418 19.9906 20.5657 19.9906 20.8418C19.9906 21.1179 19.7668 21.3418 19.4906 21.3418H12.3906C12.1145 21.3418 11.8906 21.1179 11.8906 20.8418Z" fill="#508971"/>
</g>
<g filter="url(#filter1_d_6540_7800)">
<path fill-rule="evenodd" clip-rule="evenodd" d="M2.98997 8.0189C3.00194 7.02888 3.84567 6.24023 4.88984 6.24023H18.5898C19.2618 6.24023 19.9448 6.63219 20.2371 7.21663C20.2433 7.22902 20.2489 7.24167 20.2541 7.25454L22.2459 12.234C22.4024 12.5386 22.6002 12.7024 22.8111 12.7552L22.8135 12.7558L27.4893 13.9496C28.4567 14.1026 28.9898 14.9411 28.9898 15.7402V19.4402C28.9898 20.5164 28.166 21.3402 27.0898 21.3402H25.4898C25.2137 21.3402 24.9898 21.1164 24.9898 20.8402C24.9898 20.5641 25.2137 20.3402 25.4898 20.3402H27.0898C27.6137 20.3402 27.9898 19.9641 27.9898 19.4402V15.7402C27.9898 15.3473 27.7336 14.9944 27.3191 14.9352C27.3013 14.9327 27.2836 14.9292 27.2662 14.9247L22.5686 13.7253C22.5681 13.7252 22.5677 13.7251 22.5672 13.725C21.9828 13.5784 21.5846 13.1477 21.3426 12.6638C21.3364 12.6514 21.3308 12.6388 21.3256 12.6259L19.3347 7.64872C19.22 7.43865 18.9102 7.24023 18.5898 7.24023H4.88984C4.34151 7.24023 3.98984 7.64023 3.98984 8.04023C3.98984 8.05337 3.98933 8.06649 3.98829 8.07959L3.08999 19.4581C3.09844 19.9726 3.47196 20.3402 3.98984 20.3402H6.38984C6.66599 20.3402 6.88984 20.5641 6.88984 20.8402C6.88984 21.1164 6.66599 21.3402 6.38984 21.3402H3.98984C2.9137 21.3402 2.08984 20.5164 2.08984 19.4402C2.08984 19.4271 2.09036 19.414 2.09139 19.4009L2.98997 8.0189Z" fill="#508971"/>
</g>
<g filter="url(#filter2_d_6540_7800)">
<path fill-rule="evenodd" clip-rule="evenodd" d="M16.1914 8.04102C16.4675 8.04102 16.6914 8.26487 16.6914 8.54102V11.841C16.6914 12.2649 17.0675 12.641 17.4914 12.641H22.0914C22.3675 12.641 22.5914 12.8649 22.5914 13.141C22.5914 13.4172 22.3675 13.641 22.0914 13.641H17.4914C16.5153 13.641 15.6914 12.8172 15.6914 11.841V8.54102C15.6914 8.26487 15.9153 8.04102 16.1914 8.04102Z" fill="#508971"/>
</g>
<g filter="url(#filter3_d_6540_7800)">
<path fill-rule="evenodd" clip-rule="evenodd" d="M22.4883 18.041C21.1076 18.041 19.9883 19.1603 19.9883 20.541C19.9883 21.9217 21.1076 23.041 22.4883 23.041C23.869 23.041 24.9883 21.9217 24.9883 20.541C24.9883 19.1603 23.869 18.041 22.4883 18.041ZM18.9883 20.541C18.9883 18.608 20.5553 17.041 22.4883 17.041C24.4213 17.041 25.9883 18.608 25.9883 20.541C25.9883 22.474 24.4213 24.041 22.4883 24.041C20.5553 24.041 18.9883 22.474 18.9883 20.541Z" fill="#508971"/>
</g>
<g filter="url(#filter4_d_6540_7800)">
<path fill-rule="evenodd" clip-rule="evenodd" d="M9.39062 18.041C8.00991 18.041 6.89062 19.1603 6.89062 20.541C6.89062 21.9217 8.00991 23.041 9.39062 23.041C10.7713 23.041 11.8906 21.9217 11.8906 20.541C11.8906 19.1603 10.7713 18.041 9.39062 18.041ZM5.89062 20.541C5.89062 18.608 7.45763 17.041 9.39062 17.041C11.3236 17.041 12.8906 18.608 12.8906 20.541C12.8906 22.474 11.3236 24.041 9.39062 24.041C7.45763 24.041 5.89062 22.474 5.89062 20.541Z" fill="#508971"/>
</g>
<g filter="url(#filter5_d_6540_7800)">
<path fill-rule="evenodd" clip-rule="evenodd" d="M10.6906 5.24023C10.2668 5.24023 9.89062 5.61638 9.89062 6.04023V6.64023C9.89062 6.91638 9.66677 7.14023 9.39062 7.14023C9.11448 7.14023 8.89062 6.91638 8.89062 6.64023V6.04023C8.89062 5.06409 9.71448 4.24023 10.6906 4.24023H10.9906C11.9668 4.24023 12.7906 5.06409 12.7906 6.04023V6.64023C12.7906 6.91638 12.5668 7.14023 12.2906 7.14023C12.0145 7.14023 11.7906 6.91638 11.7906 6.64023V6.04023C11.7906 5.61638 11.4145 5.24023 10.9906 5.24023H10.6906Z" fill="#508971"/>
</g>
<g filter="url(#filter6_d_6540_7800)">
<path fill-rule="evenodd" clip-rule="evenodd" d="M6.93551 2.38668C7.13077 2.19142 7.44735 2.19142 7.64262 2.38668L8.64262 3.38668C8.83788 3.58194 8.83788 3.89853 8.64262 4.09379C8.44735 4.28905 8.13077 4.28905 7.93551 4.09379L6.93551 3.09379C6.74025 2.89853 6.74025 2.58194 6.93551 2.38668Z" fill="#508971"/>
</g>
<g filter="url(#filter7_d_6540_7800)">
<path fill-rule="evenodd" clip-rule="evenodd" d="M10.7891 1.04102C11.0652 1.04102 11.2891 1.26487 11.2891 1.54102V2.94102C11.2891 3.21716 11.0652 3.44102 10.7891 3.44102C10.5129 3.44102 10.2891 3.21716 10.2891 2.94102V1.54102C10.2891 1.26487 10.5129 1.04102 10.7891 1.04102Z" fill="#508971"/>
</g>
<g filter="url(#filter8_d_6540_7800)">
<path fill-rule="evenodd" clip-rule="evenodd" d="M14.7442 2.18746C14.9394 2.38272 14.9394 2.69931 14.7442 2.89457L13.7442 3.89457C13.5489 4.08983 13.2323 4.08983 13.0371 3.89457C12.8418 3.69931 12.8418 3.38272 13.0371 3.18746L14.0371 2.18746C14.2323 1.9922 14.5489 1.9922 14.7442 2.18746Z" fill="#508971"/>
</g>
<defs>
<filter id="filter0_d_6540_7800" x="9.89062" y="19.3418" width="12.1016" height="5" filterUnits="userSpaceOnUse" color-interpolation-filters="sRGB">
<feFlood flood-opacity="0" result="BackgroundImageFix"/>
<feColorMatrix in="SourceAlpha" type="matrix" values="0 0 0 0 0 0 0 0 0 0 0 0 0 0 0 0 0 0 127 0" result="hardAlpha"/>
<feOffset dy="1"/>
<feGaussianBlur stdDeviation="1"/>
<feComposite in2="hardAlpha" operator="out"/>
<feColorMatrix type="matrix" values="0 0 0 0 0.0823529 0 0 0 0 0.545098 0 0 0 0 0.439216 0 0 0 0.4 0"/>
<feBlend mode="normal" in2="BackgroundImageFix" result="effect1_dropShadow_6540_7800"/>
<feBlend mode="normal" in="SourceGraphic" in2="effect1_dropShadow_6540_7800" result="shape"/>
</filter>
<filter id="filter1_d_6540_7800" x="0.0898438" y="5.24023" width="30.8984" height="19.0996" filterUnits="userSpaceOnUse" color-interpolation-filters="sRGB">
<feFlood flood-opacity="0" result="BackgroundImageFix"/>
<feColorMatrix in="SourceAlpha" type="matrix" values="0 0 0 0 0 0 0 0 0 0 0 0 0 0 0 0 0 0 127 0" result="hardAlpha"/>
<feOffset dy="1"/>
<feGaussianBlur stdDeviation="1"/>
<feComposite in2="hardAlpha" operator="out"/>
<feColorMatrix type="matrix" values="0 0 0 0 0.0823529 0 0 0 0 0.545098 0 0 0 0 0.439216 0 0 0 0.4 0"/>
<feBlend mode="normal" in2="BackgroundImageFix" result="effect1_dropShadow_6540_7800"/>
<feBlend mode="normal" in="SourceGraphic" in2="effect1_dropShadow_6540_7800" result="shape"/>
</filter>
<filter id="filter2_d_6540_7800" x="13.6914" y="7.04102" width="10.8984" height="9.59961" filterUnits="userSpaceOnUse" color-interpolation-filters="sRGB">
<feFlood flood-opacity="0" result="BackgroundImageFix"/>
<feColorMatrix in="SourceAlpha" type="matrix" values="0 0 0 0 0 0 0 0 0 0 0 0 0 0 0 0 0 0 127 0" result="hardAlpha"/>
<feOffset dy="1"/>
<feGaussianBlur stdDeviation="1"/>
<feComposite in2="hardAlpha" operator="out"/>
<feColorMatrix type="matrix" values="0 0 0 0 0.0823529 0 0 0 0 0.545098 0 0 0 0 0.439216 0 0 0 0.4 0"/>
<feBlend mode="normal" in2="BackgroundImageFix" result="effect1_dropShadow_6540_7800"/>
<feBlend mode="normal" in="SourceGraphic" in2="effect1_dropShadow_6540_7800" result="shape"/>
</filter>
<filter id="filter3_d_6540_7800" x="16.9883" y="16.041" width="11" height="11" filterUnits="userSpaceOnUse" color-interpolation-filters="sRGB">
<feFlood flood-opacity="0" result="BackgroundImageFix"/>
<feColorMatrix in="SourceAlpha" type="matrix" values="0 0 0 0 0 0 0 0 0 0 0 0 0 0 0 0 0 0 127 0" result="hardAlpha"/>
<feOffset dy="1"/>
<feGaussianBlur stdDeviation="1"/>
<feComposite in2="hardAlpha" operator="out"/>
<feColorMatrix type="matrix" values="0 0 0 0 0.0823529 0 0 0 0 0.545098 0 0 0 0 0.439216 0 0 0 0.4 0"/>
<feBlend mode="normal" in2="BackgroundImageFix" result="effect1_dropShadow_6540_7800"/>
<feBlend mode="normal" in="SourceGraphic" in2="effect1_dropShadow_6540_7800" result="shape"/>
</filter>
<filter id="filter4_d_6540_7800" x="3.89062" y="16.041" width="11" height="11" filterUnits="userSpaceOnUse" color-interpolation-filters="sRGB">
<feFlood flood-opacity="0" result="BackgroundImageFix"/>
<feColorMatrix in="SourceAlpha" type="matrix" values="0 0 0 0 0 0 0 0 0 0 0 0 0 0 0 0 0 0 127 0" result="hardAlpha"/>
<feOffset dy="1"/>
<feGaussianBlur stdDeviation="1"/>
<feComposite in2="hardAlpha" operator="out"/>
<feColorMatrix type="matrix" values="0 0 0 0 0.0823529 0 0 0 0 0.545098 0 0 0 0 0.439216 0 0 0 0.4 0"/>
<feBlend mode="normal" in2="BackgroundImageFix" result="effect1_dropShadow_6540_7800"/>
<feBlend mode="normal" in="SourceGraphic" in2="effect1_dropShadow_6540_7800" result="shape"/>
</filter>
<filter id="filter5_d_6540_7800" x="6.89062" y="3.24023" width="7.89844" height="6.90039" filterUnits="userSpaceOnUse" color-interpolation-filters="sRGB">
<feFlood flood-opacity="0" result="BackgroundImageFix"/>
<feColorMatrix in="SourceAlpha" type="matrix" values="0 0 0 0 0 0 0 0 0 0 0 0 0 0 0 0 0 0 127 0" result="hardAlpha"/>
<feOffset dy="1"/>
<feGaussianBlur stdDeviation="1"/>
<feComposite in2="hardAlpha" operator="out"/>
<feColorMatrix type="matrix" values="0 0 0 0 0.0823529 0 0 0 0 0.545098 0 0 0 0 0.439216 0 0 0 0.4 0"/>
<feBlend mode="normal" in2="BackgroundImageFix" result="effect1_dropShadow_6540_7800"/>
<feBlend mode="normal" in="SourceGraphic" in2="effect1_dropShadow_6540_7800" result="shape"/>
</filter>
<filter id="filter6_d_6540_7800" x="4.78906" y="1.24023" width="6" height="6" filterUnits="userSpaceOnUse" color-interpolation-filters="sRGB">
<feFlood flood-opacity="0" result="BackgroundImageFix"/>
<feColorMatrix in="SourceAlpha" type="matrix" values="0 0 0 0 0 0 0 0 0 0 0 0 0 0 0 0 0 0 127 0" result="hardAlpha"/>
<feOffset dy="1"/>
<feGaussianBlur stdDeviation="1"/>
<feComposite in2="hardAlpha" operator="out"/>
<feColorMatrix type="matrix" values="0 0 0 0 0.0823529 0 0 0 0 0.545098 0 0 0 0 0.439216 0 0 0 0.4 0"/>
<feBlend mode="normal" in2="BackgroundImageFix" result="effect1_dropShadow_6540_7800"/>
<feBlend mode="normal" in="SourceGraphic" in2="effect1_dropShadow_6540_7800" result="shape"/>
</filter>
<filter id="filter7_d_6540_7800" x="8.28906" y="0.0410156" width="5" height="6.40039" filterUnits="userSpaceOnUse" color-interpolation-filters="sRGB">
<feFlood flood-opacity="0" result="BackgroundImageFix"/>
<feColorMatrix in="SourceAlpha" type="matrix" values="0 0 0 0 0 0 0 0 0 0 0 0 0 0 0 0 0 0 127 0" result="hardAlpha"/>
<feOffset dy="1"/>
<feGaussianBlur stdDeviation="1"/>
<feComposite in2="hardAlpha" operator="out"/>
<feColorMatrix type="matrix" values="0 0 0 0 0.0823529 0 0 0 0 0.545098 0 0 0 0 0.439216 0 0 0 0.4 0"/>
<feBlend mode="normal" in2="BackgroundImageFix" result="effect1_dropShadow_6540_7800"/>
<feBlend mode="normal" in="SourceGraphic" in2="effect1_dropShadow_6540_7800" result="shape"/>
</filter>
<filter id="filter8_d_6540_7800" x="10.8906" y="1.04102" width="6" height="6" filterUnits="userSpaceOnUse" color-interpolation-filters="sRGB">
<feFlood flood-opacity="0" result="BackgroundImageFix"/>
<feColorMatrix in="SourceAlpha" type="matrix" values="0 0 0 0 0 0 0 0 0 0 0 0 0 0 0 0 0 0 127 0" result="hardAlpha"/>
<feOffset dy="1"/>
<feGaussianBlur stdDeviation="1"/>
<feComposite in2="hardAlpha" operator="out"/>
<feColorMatrix type="matrix" values="0 0 0 0 0.0823529 0 0 0 0 0.545098 0 0 0 0 0.439216 0 0 0 0.4 0"/>
<feBlend mode="normal" in2="BackgroundImageFix" result="effect1_dropShadow_6540_7800"/>
<feBlend mode="normal" in="SourceGraphic" in2="effect1_dropShadow_6540_7800" result="shape"/>
</filter>
</defs>
</svg>
